# Blender v2.91.0 OBJ File: 'thing.blend'
# www.blender.org
mtllib thing.mtl
o Cube
v 1.000000 1.000000 -1.000000
v 1.000000 -1.000000 -1.000000
v -1.000000 1.000000 -1.000000
v -1.000000 -1.000000 -1.000000
v -1.000000 1.000000 1.000000
v 0.229920 1.000000 1.000000
v 1.000000 1.000000 0.229920
v 0.229920 -0.229920 1.000000
v 1.000000 -1.000000 0.229920
v -1.000000 -1.000000 0.229920
v -1.000000 -0.229920 1.000000
vt 0.875000 0.500000
vt 0.721260 0.750000
vt 0.625000 0.653740
vt 0.471260 0.000000
vt 0.625000 0.000000
vt 0.625000 0.250000
vt 0.375000 0.500000
vt 0.375000 0.250000
vt 0.375000 0.096260
vt 0.625000 0.500000
vt 0.875000 0.750000
vt 0.125000 0.653740
vt 0.125000 0.500000
vt 0.625000 0.846260
vt 0.471260 1.000000
vt 0.471260 0.846260
vt 0.278740 0.750000
vt 0.125000 0.750000
vt 0.375000 0.653740
vt 0.625000 1.000000
vn 0.0000 1.0000 -0.0000
vn -1.0000 0.0000 0.0000
vn 0.0000 0.0000 -1.0000
vn 0.5773 -0.5773 -0.5773
vn -0.6302 -0.7173 0.2971
vn -0.5773 -0.5773 -0.5773
vn 0.2971 0.6302 0.7173
vn -0.6302 -0.2971 0.7173
vn 0.3002 -0.3002 0.9054
vn 0.7173 0.6302 0.2971
vn 0.5773 0.5773 -0.5773
vn 0.6507 -0.6507 0.3913
vn -0.5773 0.5773 0.5773
usemtl Material
s off
f 3/1/1 6/2/1 7/3/1
f 11/4/2 5/5/2 3/6/2
f 3/6/3 2/7/3 4/8/3
f 4/8/2 10/9/2 3/6/2
f 10/9/2 11/4/2 3/6/2
f 3/6/3 1/10/3 2/7/3
f 7/3/1 1/10/1 3/1/1
f 3/1/1 5/11/1 6/2/1
s 1
f 2/7/4 10/12/5 4/13/6
f 6/14/7 11/15/8 8/16/9
f 8/16/9 7/3/10 6/14/7
f 10/12/5 8/17/9 11/18/8
f 1/10/11 9/19/12 2/7/4
f 2/7/4 9/19/12 10/12/5
f 10/12/5 9/19/12 8/17/9
f 6/14/7 5/20/13 11/15/8
f 8/16/9 9/19/12 7/3/10
f 1/10/11 7/3/10 9/19/12
